<svg width="24" height="24" viewBox="0 0 24 24" fill="none" xmlns="http://www.w3.org/2000/svg">
<path d="M23.3339 0.582933V6.87734C23.3339 7.25514 23.15 7.61048 22.8414 7.82908L16.8274 12.0855C16.8274 12.0855 16.8217 12.0889 16.8195 12.0911C16.5413 12.2918 16.3663 12.6034 16.3394 12.9419C16.336 12.9745 16.3349 13.007 16.3349 13.0395V22.7339C16.3349 23.0556 16.0735 23.3168 15.7515 23.3168H15.3084C15.1009 23.3168 14.909 23.2058 14.8047 23.0276L8.65151 12.4857C8.65151 12.4857 8.64924 12.4812 8.64701 12.4801C8.5124 12.2582 8.16801 12.3535 8.16801 12.6157V22.7339C8.16801 23.0556 7.90662 23.3168 7.58464 23.3168H7.14152C6.93397 23.3168 6.74214 23.2058 6.63781 23.0276L0.235565 12.0609C0.0807753 11.7974 0 11.497 0 11.1909V0.582933C0 0.260088 0.261387 0 0.583337 0H1.02645C1.23288 0 1.42472 0.109878 1.53016 0.288108L7.68336 10.83C7.81686 11.0587 8.16689 10.9645 8.16689 10.6999V0.582933C8.16689 0.260088 8.42824 0 8.75023 0H9.19334C9.39978 0 9.59161 0.109878 9.69705 0.288108L15.8503 10.83C15.9837 11.0587 16.3337 10.9645 16.3337 10.6999V5.16782C16.3337 4.60731 16.6052 4.08158 17.063 3.75761L22.2211 0.106483C22.3198 0.0370107 22.4376 0 22.5588 0H22.7506C23.0725 0 23.3339 0.260088 23.3339 0.582933Z" fill="#2C2A29"/>
</svg>
