<svg width="36" height="38" viewBox="0 0 36 38" fill="none" xmlns="http://www.w3.org/2000/svg">
<g clip-path="url(#clip0_631_3721)">
<path d="M18.0055 5.52478C8.1743 5.52478 0.206299 11.2036 0.206299 18.2092C0.206299 25.2148 8.17556 31.4424 18.0055 31.4424C27.8354 31.4424 35.8046 25.2134 35.8046 18.2092C35.8046 11.205 27.8354 5.52478 18.0055 5.52478Z" fill="#00BCFF"/>
<path d="M12.214 14.2877C12.2052 14.3074 12.0309 14.5072 12.1446 14.669C12.4199 15.0602 13.27 15.2853 14.1303 15.07C14.6418 14.942 15.2987 14.3609 15.934 13.7995C16.6225 13.1902 17.3058 12.5796 17.993 12.3376C18.7206 12.0801 19.1867 12.1898 19.4949 12.294C19.8321 12.4065 20.23 12.6542 20.8641 13.1832C22.0578 14.1822 26.8553 18.8479 27.6852 19.6542C28.3521 19.3179 31.534 17.8869 35.566 16.8964C35.2149 14.5016 33.9227 12.218 31.9382 10.4254C29.1732 11.7185 25.5694 12.4938 22.265 10.697C22.2486 10.6899 20.4599 9.74722 18.6966 9.79365C16.0755 9.86119 14.9399 11.1247 13.7387 12.4628L12.2166 14.2905L12.214 14.2877Z" fill="white"/>
<path d="M27.4869 20.1621C27.4301 20.1059 21.8444 14.662 20.5787 13.6025C19.8461 12.9905 19.4394 12.8343 19.0111 12.7738C18.7888 12.7414 18.4806 12.7879 18.2659 12.854C17.6772 13.0327 16.908 13.6054 16.2246 14.209C15.5172 14.8365 14.8503 15.4275 14.2301 15.5822C13.4394 15.7792 12.473 15.5471 12.0322 15.215C11.8541 15.0813 11.7278 14.9266 11.6671 14.7704C11.5042 14.3497 11.8048 14.0134 11.8541 13.9571L13.3951 12.0998C13.5745 11.9014 13.7551 11.7016 13.9396 11.5047C13.4419 11.5764 12.9821 11.7185 12.5349 11.8564C11.9766 12.0309 11.4385 12.1969 10.8954 12.1969C10.668 12.1969 9.45283 11.9746 9.22167 11.9057C7.82588 11.4807 6.24567 11.0657 4.41662 10.1145C2.22504 11.931 0.79767 14.1625 0.374512 16.6657C0.689038 16.7585 1.51388 16.9682 1.72735 17.0202C6.68651 18.2486 8.23135 19.5135 8.51177 19.778C8.81493 19.4023 9.25325 19.1646 9.74083 19.1646C10.2903 19.1646 10.7842 19.4727 11.0848 19.9469C11.369 19.6964 11.7606 19.4825 12.2671 19.4839C12.497 19.4839 12.7358 19.5318 12.977 19.6218C13.5366 19.8357 13.8259 20.2508 13.9749 20.6265C14.1619 20.5322 14.393 20.4618 14.6646 20.4632C14.9324 20.4632 15.2103 20.5308 15.4895 20.6659C16.404 21.1034 16.5455 22.1038 16.4634 22.858C16.529 22.8496 16.5947 22.8468 16.6604 22.8468C17.7442 22.8468 18.6259 23.8289 18.6259 25.0375C18.6259 25.4118 18.54 25.7635 18.3909 26.0717C18.6865 26.256 19.4381 26.6739 20.0987 26.581C20.6255 26.5065 20.8263 26.3067 20.897 26.1927C20.9463 26.1153 20.9981 26.0239 20.9501 25.9591L19.5505 24.2285C19.5505 24.2285 19.3206 23.9851 19.3964 23.8922C19.4747 23.7965 19.6175 23.9344 19.7185 24.0273C20.4309 24.69 21.3 25.689 21.3 25.689C21.3151 25.7002 21.372 25.8269 21.6941 25.8902C21.9707 25.9451 22.4608 25.9141 22.8006 25.6031C22.8852 25.5244 22.9711 25.4273 23.0444 25.326C23.0381 25.3316 23.033 25.3372 23.028 25.34C23.3867 24.8293 22.9876 24.3143 22.9876 24.3143L21.3543 22.2713C21.3543 22.2713 21.1206 22.0307 21.2002 21.9336C21.2709 21.8492 21.4212 21.9758 21.5236 22.0715C22.0402 22.5527 22.7716 23.3702 23.4714 24.1342C23.609 24.2454 24.2242 24.6689 25.0389 24.0737C25.5341 23.7121 25.6326 23.2675 25.6187 22.934C25.5846 22.4908 25.2739 22.1742 25.2739 22.1742L23.0431 19.6753C23.0431 19.6753 22.8069 19.4516 22.8903 19.3376C22.9585 19.2419 23.1114 19.3798 23.2124 19.4727C23.9223 20.1354 25.8474 22.101 25.8474 22.101C25.8751 22.1221 26.5396 22.6498 27.3619 22.0673C27.6562 21.8576 27.8431 21.5424 27.8596 21.1752C27.8874 20.5392 27.4857 20.1621 27.4857 20.1621H27.4869Z" fill="white"/>
<path d="M16.6642 23.3294C16.3181 23.3252 15.9391 23.5545 15.8898 23.5208C15.8621 23.5011 15.9113 23.3463 15.9429 23.2563C15.977 23.1676 16.4317 21.641 15.3214 21.1105C14.4713 20.7039 13.9509 21.1612 13.7728 21.368C13.7261 21.4215 13.7046 21.4173 13.6995 21.3497C13.6818 21.0739 13.572 20.331 12.8381 20.0806C11.7896 19.7232 11.1151 20.5379 10.9446 20.8333C10.8675 20.1678 10.3623 19.6514 9.74458 19.65C9.07258 19.65 8.5269 20.2551 8.52563 21.005C8.52563 21.7535 9.07006 22.3614 9.74332 22.3614C10.0705 22.3614 10.3661 22.2165 10.5846 21.9829C10.5922 21.9899 10.5947 22.0026 10.5909 22.0279C10.5391 22.3642 10.4456 23.5813 11.5913 24.078C12.0511 24.2764 12.4414 24.1286 12.7648 23.8768C12.8608 23.8008 12.8772 23.8331 12.8633 23.9344C12.8216 24.2482 12.8747 24.918 13.7185 25.2993C14.3602 25.5905 14.7404 25.2936 14.9905 25.0362C15.0991 24.9264 15.1282 24.9447 15.1345 25.115C15.1648 26.0211 15.8406 26.7415 16.6616 26.7429C17.5079 26.7429 18.1938 25.9817 18.1938 25.0404C18.1938 24.0977 17.5092 23.3435 16.6629 23.3336L16.6642 23.3294Z" fill="white"/>
<path d="M18.0018 5C7.98372 5 -0.137122 10.9349 -0.137122 18.2149C-0.137122 18.4034 -0.139648 18.9226 -0.139648 18.9887C-0.139648 26.7134 6.95803 32.9676 17.9993 32.9676C29.0406 32.9676 36.1395 26.7134 36.1395 18.9902V18.2149C36.1395 10.9349 28.0187 5 18.0018 5ZM35.3222 16.7502C31.3799 17.7266 28.4393 19.1435 27.7029 19.5093C25.9825 17.8364 22.006 13.9853 20.9286 13.0848C20.3134 12.5684 19.8928 12.2969 19.5239 12.1745C19.3585 12.1182 19.1298 12.0549 18.8355 12.0549C18.5614 12.0549 18.2671 12.1097 17.9601 12.2195C17.2641 12.4657 16.5707 13.0792 15.8999 13.673L15.8658 13.7039C15.2406 14.2569 14.5951 14.8295 14.1062 14.9506C13.8928 15.004 13.673 15.0322 13.4545 15.0322C12.9062 15.0322 12.4149 14.8549 12.2305 14.5932C12.2001 14.5495 12.2204 14.4792 12.2911 14.3793L12.2999 14.3652L13.8145 12.5487C15.0006 11.2275 16.1197 9.9809 18.6978 9.91477C18.7408 9.91337 18.7837 9.91196 18.8267 9.91196C20.4309 9.91337 22.0351 10.7126 22.2157 10.8068C23.7201 11.6243 25.2738 12.0394 26.8338 12.0408C28.457 12.0408 30.1319 11.5948 31.8928 10.6929C33.7319 12.4151 34.9509 14.4905 35.3222 16.7516V16.7502ZM18.0044 5.7795C23.3222 5.7795 28.0793 7.47779 31.2789 10.1512C29.7328 10.8969 28.2587 11.2726 26.8364 11.2726C25.3812 11.2712 23.9273 10.8814 22.5151 10.1146C22.4406 10.0752 20.6696 9.14513 18.8267 9.14372C18.7787 9.14372 18.7294 9.14372 18.6814 9.14513C16.5164 9.20141 15.2961 10.0583 14.4764 10.8082C13.6793 10.8308 12.9909 11.0446 12.3782 11.2346C11.8313 11.4034 11.3601 11.5497 10.9004 11.5497C10.7109 11.5497 10.3698 11.5301 10.3395 11.5286C9.81151 11.5104 7.15888 10.7857 5.04056 9.89508C8.23256 7.36804 12.8582 5.77809 18.0056 5.77809L18.0044 5.7795ZM4.41151 10.4241C6.6233 11.4316 9.30751 12.2111 10.1564 12.2716C10.3926 12.2884 10.6452 12.3194 10.8978 12.3194C11.4612 12.3194 12.0233 12.1435 12.5665 11.9747C12.8873 11.8748 13.2422 11.765 13.6149 11.6862C13.5151 11.7946 13.4153 11.9057 13.3155 12.0169L11.7782 13.8699C11.657 14.0064 11.3942 14.3694 11.5673 14.8169C11.6355 14.997 11.7757 15.17 11.9715 15.3164C12.3378 15.5908 12.9947 15.7779 13.6035 15.7779C13.8347 15.7779 14.0545 15.7526 14.254 15.7019C14.8995 15.5415 15.5753 14.9407 16.2915 14.3061C16.8625 13.801 17.6734 13.1594 18.2949 12.9709C18.4692 12.9188 18.6814 12.885 18.8532 12.885C18.905 12.885 18.953 12.8878 18.9972 12.8949C19.4065 12.9526 19.8031 13.1073 20.5117 13.6997C21.7749 14.7564 27.3606 20.2002 27.4149 20.2537C27.4187 20.2565 27.7749 20.5998 27.7496 21.1682C27.7357 21.4862 27.5778 21.7676 27.3025 21.9632C27.0637 22.1321 26.8187 22.2179 26.5698 22.2179C26.1959 22.2179 25.9395 22.0223 25.9218 22.0096C25.9016 21.9914 23.9879 20.0356 23.2831 19.3785C23.1707 19.2744 23.062 19.1815 22.9521 19.1815C22.8928 19.1815 22.841 19.2096 22.8056 19.2589C22.6945 19.4109 22.8182 19.6219 22.9648 19.7598L25.2006 22.2643C25.2006 22.2643 25.4797 22.5542 25.51 22.9383C25.5277 23.3534 25.3496 23.7009 24.9795 23.9711C24.7155 24.1652 24.449 24.2623 24.1875 24.2623C23.8439 24.2623 23.6027 24.0878 23.5496 24.047L23.2288 23.6953C22.6427 23.0523 22.0376 22.3881 21.5942 21.9773C21.4856 21.8774 21.3707 21.7845 21.2608 21.7845C21.2065 21.7845 21.1572 21.807 21.1193 21.8521C21.0688 21.914 21.0334 22.0265 21.1597 22.2137C21.2102 22.2911 21.2721 22.3544 21.2721 22.3544L22.9029 24.396C22.9155 24.4143 23.2389 24.842 22.9395 25.2669L22.8814 25.3485C22.8321 25.4076 22.7804 25.4639 22.7298 25.5118C22.4519 25.7664 22.0806 25.7932 21.9328 25.7932C21.8532 25.7932 21.7787 25.7861 21.7117 25.7721C21.5513 25.7397 21.4427 25.6905 21.3896 25.6215L21.3694 25.599C21.281 25.4963 20.4587 24.5606 19.7778 23.9288C19.6881 23.8444 19.5757 23.7403 19.4608 23.7403C19.4039 23.7403 19.3534 23.7656 19.313 23.8135C19.1791 23.9781 19.3812 24.2229 19.4671 24.313L20.8578 26.0225C20.8566 26.038 20.8389 26.0732 20.806 26.1266C20.7555 26.204 20.5875 26.3912 20.0822 26.4615C20.0216 26.4699 19.9585 26.4742 19.8978 26.4742C19.3774 26.4742 18.8216 26.1928 18.5349 26.0239C18.665 25.7172 18.7332 25.3795 18.7332 25.0418C18.7332 23.7656 17.8035 22.7286 16.6578 22.7272C16.6338 22.7272 16.6073 22.7272 16.5833 22.7286C16.6199 22.1461 16.5467 21.043 15.5298 20.5576C15.2368 20.4169 14.945 20.3437 14.662 20.3437C14.4397 20.3437 14.2262 20.3859 14.0254 20.4718C13.8145 20.0159 13.4646 19.6838 13.0098 19.5108C12.7572 19.4137 12.5071 19.3644 12.2646 19.3644C11.8414 19.3644 11.4511 19.5037 11.1037 19.7781C10.7702 19.3166 10.2675 19.0436 9.73825 19.0436C9.27467 19.0436 8.82877 19.2505 8.49909 19.6149C8.06583 19.2462 6.34793 18.0306 1.74877 16.8669C1.52898 16.8121 1.03004 16.6531 0.716772 16.5504C1.14751 14.2513 2.45993 12.1506 4.40519 10.4269L4.41151 10.4241ZM12.9429 23.76L12.8936 23.7108H12.8431C12.8027 23.7108 12.7597 23.729 12.7029 23.7741C12.4679 23.9584 12.2444 24.047 12.0157 24.047C11.8894 24.047 11.7606 24.0189 11.6317 23.964C10.5656 23.5011 10.649 22.3811 10.702 22.0434C10.7096 21.9745 10.6945 21.9224 10.6553 21.8858L10.5795 21.8169L10.5088 21.8915C10.3004 22.1152 10.0288 22.2362 9.7433 22.2362C9.13319 22.2362 8.63551 21.6832 8.63677 21.0022C8.63677 20.3226 9.13446 19.7696 9.74583 19.7711C10.2978 19.7711 10.7677 20.2326 10.8372 20.8474L10.8751 21.1781L11.038 20.8981C11.0557 20.8657 11.5041 20.1116 12.3265 20.113C12.4831 20.113 12.6448 20.1411 12.8077 20.1974C13.4633 20.4197 13.5745 21.0824 13.5909 21.3582C13.6022 21.5186 13.7058 21.527 13.7248 21.527C13.7816 21.527 13.8233 21.4876 13.8524 21.4525C13.9761 21.3089 14.2452 21.0697 14.6671 21.0697C14.8604 21.0697 15.065 21.1218 15.2772 21.2231C16.3193 21.7212 15.8469 23.1958 15.8418 23.2113C15.7521 23.4561 15.7484 23.563 15.833 23.6263L15.8734 23.6474H15.9037C15.9505 23.6474 16.0086 23.6249 16.1058 23.5883C16.2473 23.5335 16.4608 23.4519 16.6616 23.4519C17.446 23.4617 18.0839 24.1737 18.0839 25.0362C18.0839 25.9085 17.4448 26.6177 16.6604 26.6177C15.8936 26.6177 15.2696 25.9522 15.2418 25.1065C15.2393 25.0334 15.233 24.842 15.0865 24.842C15.0271 24.842 14.974 24.8828 14.9147 24.9433C14.7454 25.1178 14.5307 25.2937 14.2174 25.2937C14.0747 25.2937 13.9206 25.2571 13.7576 25.1825C12.9479 24.8167 12.9366 24.1976 12.9694 23.9485C12.9782 23.8824 12.9808 23.8135 12.9404 23.7586L12.9429 23.76ZM18.0044 30.6376C8.37151 30.6376 0.562667 25.0728 0.562667 18.2092C0.562667 17.9335 0.580351 17.6591 0.604351 17.3875C0.681404 17.4086 1.44688 17.6113 1.60477 17.6521C6.30246 18.8143 7.85488 20.0229 8.11762 20.2523C8.02919 20.4901 7.98246 20.7461 7.98246 21.005C7.98246 22.087 8.77193 22.9678 9.74204 22.9678C9.85067 22.9678 9.9593 22.9566 10.0654 22.9341C10.2119 23.7305 10.6793 24.3341 11.393 24.6436C11.6014 24.7323 11.8124 24.7787 12.0208 24.7787C12.1547 24.7787 12.2898 24.7604 12.4212 24.7238C12.5538 25.0967 12.8494 25.5624 13.5138 25.8621C13.7462 25.9662 13.9787 26.0211 14.2048 26.0211C14.3892 26.0211 14.5698 25.9845 14.7416 25.9142C15.0599 26.7767 15.8166 27.3493 16.6604 27.3493C17.2199 27.3493 17.7568 27.0961 18.1484 26.6472C18.4831 26.8555 19.1905 27.2312 19.9054 27.2326C19.9976 27.2326 20.0835 27.2255 20.1719 27.2143C20.8818 27.1144 21.2115 26.8048 21.3631 26.5642C21.3909 26.522 21.4149 26.477 21.4364 26.4306C21.6031 26.484 21.7875 26.5276 21.9997 26.529C22.3875 26.529 22.7589 26.3813 23.1353 26.0774C23.5054 25.7805 23.7681 25.3542 23.806 24.9912C23.806 24.9869 23.806 24.9813 23.8073 24.9757C23.9324 25.0038 24.0599 25.0179 24.1875 25.0179C24.5867 25.0179 24.9795 24.88 25.3547 24.6056C26.0785 24.078 26.2035 23.3871 26.1921 22.9355C26.3197 22.965 26.4486 22.9805 26.5774 22.9805C26.9513 22.9805 27.3201 22.8553 27.67 22.6062C28.1185 22.2868 28.3888 21.7972 28.4305 21.2287C28.457 20.8418 28.3711 20.4507 28.1892 20.1158C29.3993 19.5347 32.1656 18.4105 35.4233 17.593C35.4372 17.7984 35.4448 18.0052 35.4448 18.2135C35.4448 25.077 27.6359 30.6418 18.0044 30.6418V30.6376Z" fill="#0A0080"/>
</g>
<defs>
<clipPath id="clip0_631_3721">
<rect width="36" height="37.9676" fill="white"/>
</clipPath>
</defs>
</svg>
